<svg xmlns="http://www.w3.org/2000/svg" xmlns:xlink="http://www.w3.org/1999/xlink" width="300" zoomAndPan="magnify" viewBox="0 0 224.87999 74.999997" height="100" preserveAspectRatio="xMidYMid meet" version="1.0"><defs><g/></defs><g fill="rgb(54.899597%, 32.159424%, 100%)" fill-opacity="1"><g transform="translate(-2.064353, 57.542298)"><g><path d="M 3.273438 -43.113281 L 36.828125 -43.113281 C 38.625 -43.113281 40.101562 -42.921875 41.191406 -42.667969 C 42.21875 -42.34375 42.988281 -41.832031 43.5625 -41.191406 C 44.078125 -40.484375 44.460938 -39.585938 44.65625 -38.558594 C 44.785156 -37.46875 44.847656 -36.121094 44.847656 -34.582031 L 44.847656 -19.054688 C 44.847656 -17.453125 44.71875 -16.105469 44.589844 -15.078125 C 44.398438 -13.921875 44.011719 -13.023438 43.5 -12.382812 C 42.921875 -11.675781 42.089844 -11.164062 41.0625 -10.90625 C 39.972656 -10.523438 38.496094 -10.394531 36.699219 -10.394531 L 17.707031 -10.394531 L 17.707031 4.875 L 3.273438 4.875 Z M 17.707031 -16.617188 L 29.578125 -16.617188 C 30.089844 -16.617188 30.410156 -16.875 30.410156 -17.386719 L 30.410156 -36.121094 C 30.410156 -36.636719 30.089844 -36.890625 29.578125 -36.890625 L 17.707031 -36.890625 Z M 17.707031 -16.617188 "/></g></g></g><g fill="rgb(54.899597%, 32.159424%, 100%)" fill-opacity="1"><g transform="translate(46.045991, 57.542298)"><g><path d="M 40.613281 -3.785156 C 40.613281 -2.117188 40.546875 -0.769531 40.421875 0.320312 C 40.226562 1.347656 39.84375 2.246094 39.328125 2.953125 C 38.753906 3.59375 37.917969 4.105469 36.890625 4.425781 C 35.738281 4.683594 34.261719 4.875 32.464844 4.875 L 11.097656 4.875 C 9.175781 4.875 7.699219 4.683594 6.671875 4.425781 C 5.582031 4.105469 4.746094 3.59375 4.234375 2.953125 C 3.65625 2.246094 3.335938 1.347656 3.207031 0.320312 C 3.015625 -0.769531 2.953125 -2.117188 2.953125 -3.785156 L 2.953125 -15.269531 C 2.953125 -16.808594 3.015625 -18.15625 3.207031 -19.3125 C 3.335938 -20.402344 3.65625 -21.300781 4.234375 -22.007812 C 4.746094 -22.648438 5.582031 -23.160156 6.671875 -23.480469 C 7.699219 -23.738281 9.175781 -23.929688 11.097656 -23.929688 L 32.464844 -23.929688 C 34.261719 -23.929688 35.738281 -23.738281 36.890625 -23.480469 C 37.917969 -23.160156 38.753906 -22.648438 39.328125 -22.007812 C 39.84375 -21.300781 40.226562 -20.402344 40.421875 -19.3125 C 40.546875 -18.15625 40.613281 -16.808594 40.613281 -15.269531 Z M 16.808594 -2.054688 C 16.808594 -1.539062 17.066406 -1.347656 17.644531 -1.347656 L 25.984375 -1.347656 C 26.496094 -1.347656 26.820312 -1.539062 26.820312 -2.054688 L 26.820312 -17.003906 C 26.820312 -17.453125 26.496094 -17.707031 25.984375 -17.707031 L 17.644531 -17.707031 C 17.066406 -17.707031 16.808594 -17.453125 16.808594 -17.003906 Z M 16.808594 -2.054688 "/></g></g></g><g fill="rgb(54.899597%, 32.159424%, 100%)" fill-opacity="1"><g transform="translate(89.666028, 57.542298)"><g><path d="M 46.773438 -7.058594 C 46.773438 -4.363281 46.453125 -2.308594 45.9375 -0.769531 C 45.296875 0.769531 44.460938 1.988281 43.4375 2.886719 C 42.34375 3.65625 41.0625 4.234375 39.523438 4.492188 C 37.984375 4.746094 36.1875 4.875 34.261719 4.875 L 3.273438 4.875 L 3.273438 -43.113281 L 34.261719 -43.113281 C 36.761719 -43.113281 38.816406 -42.921875 40.484375 -42.601562 C 42.089844 -42.21875 43.371094 -41.511719 44.335938 -40.546875 C 45.234375 -39.523438 45.875 -38.109375 46.257812 -36.378906 C 46.578125 -34.582031 46.773438 -32.207031 46.773438 -29.386719 Z M 17.707031 -1.347656 L 30.15625 -1.347656 C 30.796875 -1.347656 31.375 -1.476562 31.757812 -1.796875 C 32.144531 -2.054688 32.335938 -2.695312 32.335938 -3.847656 L 32.335938 -35.03125 C 32.335938 -35.609375 32.207031 -36.058594 31.953125 -36.441406 C 31.695312 -36.699219 31.054688 -36.890625 30.15625 -36.890625 L 17.707031 -36.890625 Z M 17.707031 -1.347656 "/></g></g></g><g fill="rgb(54.899597%, 32.159424%, 100%)" fill-opacity="1"><g transform="translate(139.700776, 57.542298)"><g><path d="M 40.613281 -3.785156 C 40.613281 -2.117188 40.546875 -0.769531 40.421875 0.320312 C 40.226562 1.347656 39.84375 2.246094 39.328125 2.953125 C 38.753906 3.59375 37.917969 4.105469 36.890625 4.425781 C 35.738281 4.683594 34.261719 4.875 32.464844 4.875 L 11.097656 4.875 C 9.175781 4.875 7.699219 4.683594 6.671875 4.425781 C 5.582031 4.105469 4.746094 3.59375 4.234375 2.953125 C 3.65625 2.246094 3.335938 1.347656 3.207031 0.320312 C 3.015625 -0.769531 2.953125 -2.117188 2.953125 -3.785156 L 2.953125 -15.269531 C 2.953125 -16.808594 3.015625 -18.15625 3.207031 -19.3125 C 3.335938 -20.402344 3.65625 -21.300781 4.234375 -22.007812 C 4.746094 -22.648438 5.582031 -23.160156 6.671875 -23.480469 C 7.699219 -23.738281 9.175781 -23.929688 11.097656 -23.929688 L 32.464844 -23.929688 C 34.261719 -23.929688 35.738281 -23.738281 36.890625 -23.480469 C 37.917969 -23.160156 38.753906 -22.648438 39.328125 -22.007812 C 39.84375 -21.300781 40.226562 -20.402344 40.421875 -19.3125 C 40.546875 -18.15625 40.613281 -16.808594 40.613281 -15.269531 Z M 16.808594 -2.054688 C 16.808594 -1.539062 17.066406 -1.347656 17.644531 -1.347656 L 25.984375 -1.347656 C 26.496094 -1.347656 26.820312 -1.539062 26.820312 -2.054688 L 26.820312 -17.003906 C 26.820312 -17.453125 26.496094 -17.707031 25.984375 -17.707031 L 17.644531 -17.707031 C 17.066406 -17.707031 16.808594 -17.453125 16.808594 -17.003906 Z M 16.808594 -2.054688 "/></g></g></g><g fill="rgb(54.899597%, 32.159424%, 100%)" fill-opacity="1"><g transform="translate(183.320813, 57.542298)"><g><path d="M 40.613281 -3.785156 C 40.613281 -2.117188 40.546875 -0.769531 40.421875 0.320312 C 40.226562 1.347656 39.84375 2.246094 39.328125 2.953125 C 38.753906 3.59375 37.917969 4.105469 36.890625 4.425781 C 35.738281 4.683594 34.261719 4.875 32.464844 4.875 L 11.097656 4.875 C 9.175781 4.875 7.699219 4.683594 6.671875 4.425781 C 5.582031 4.105469 4.746094 3.59375 4.234375 2.953125 C 3.65625 2.246094 3.335938 1.347656 3.207031 0.320312 C 3.015625 -0.769531 2.953125 -2.117188 2.953125 -3.785156 L 2.953125 -15.269531 C 2.953125 -16.808594 3.015625 -18.15625 3.207031 -19.3125 C 3.335938 -20.402344 3.65625 -21.300781 4.234375 -22.007812 C 4.746094 -22.648438 5.582031 -23.160156 6.671875 -23.480469 C 7.699219 -23.738281 9.175781 -23.929688 11.097656 -23.929688 L 32.464844 -23.929688 C 34.261719 -23.929688 35.738281 -23.738281 36.890625 -23.480469 C 37.917969 -23.160156 38.753906 -22.648438 39.328125 -22.007812 C 39.84375 -21.300781 40.226562 -20.402344 40.421875 -19.3125 C 40.546875 -18.15625 40.613281 -16.808594 40.613281 -15.269531 Z M 16.808594 -2.054688 C 16.808594 -1.539062 17.066406 -1.347656 17.644531 -1.347656 L 25.984375 -1.347656 C 26.496094 -1.347656 26.820312 -1.539062 26.820312 -2.054688 L 26.820312 -17.003906 C 26.820312 -17.453125 26.496094 -17.707031 25.984375 -17.707031 L 17.644531 -17.707031 C 17.066406 -17.707031 16.808594 -17.453125 16.808594 -17.003906 Z M 16.808594 -2.054688 "/></g></g></g></svg>