<svg xmlns="http://www.w3.org/2000/svg" xmlns:xlink="http://www.w3.org/1999/xlink" width="300" zoomAndPan="magnify" viewBox="0 0 224.87999 74.999997" height="100" preserveAspectRatio="xMidYMid meet" version="1.0"><defs><g/></defs><g fill="rgb(54.899597%, 32.159424%, 100%)" fill-opacity="1"><g transform="translate(16.540698, 55.469194)"><g><path d="M 3.386719 -44.605469 L 38.101562 -44.605469 C 39.960938 -44.605469 41.488281 -44.40625 42.613281 -44.140625 C 43.675781 -43.808594 44.472656 -43.277344 45.070312 -42.613281 C 45.601562 -41.886719 46 -40.957031 46.199219 -39.894531 C 46.332031 -38.765625 46.398438 -37.371094 46.398438 -35.777344 L 46.398438 -19.714844 C 46.398438 -18.054688 46.265625 -16.660156 46.132812 -15.597656 C 45.933594 -14.402344 45.535156 -13.476562 45.003906 -12.8125 C 44.40625 -12.082031 43.542969 -11.550781 42.480469 -11.285156 C 41.355469 -10.886719 39.828125 -10.753906 37.96875 -10.753906 L 18.320312 -10.753906 L 18.320312 5.042969 L 3.386719 5.042969 Z M 18.320312 -17.191406 L 30.601562 -17.191406 C 31.132812 -17.191406 31.464844 -17.457031 31.464844 -17.988281 L 31.464844 -37.371094 C 31.464844 -37.902344 31.132812 -38.167969 30.601562 -38.167969 L 18.320312 -38.167969 Z M 18.320312 -17.191406 "/></g></g></g><g fill="rgb(54.899597%, 32.159424%, 100%)" fill-opacity="1"><g transform="translate(66.314909, 55.469194)"><g><path d="M 42.015625 -3.917969 C 42.015625 -2.191406 41.949219 -0.796875 41.820312 0.332031 C 41.621094 1.394531 41.222656 2.324219 40.691406 3.054688 C 40.09375 3.71875 39.230469 4.25 38.167969 4.582031 C 36.972656 4.84375 35.445312 5.042969 33.585938 5.042969 L 11.484375 5.042969 C 9.492188 5.042969 7.964844 4.84375 6.902344 4.582031 C 5.773438 4.25 4.910156 3.71875 4.382812 3.054688 C 3.785156 2.324219 3.453125 1.394531 3.320312 0.332031 C 3.121094 -0.796875 3.054688 -2.191406 3.054688 -3.917969 L 3.054688 -15.796875 C 3.054688 -17.390625 3.121094 -18.785156 3.320312 -19.980469 C 3.453125 -21.109375 3.785156 -22.039062 4.382812 -22.769531 C 4.910156 -23.429688 5.773438 -23.960938 6.902344 -24.292969 C 7.964844 -24.558594 9.492188 -24.757812 11.484375 -24.757812 L 33.585938 -24.757812 C 35.445312 -24.757812 36.972656 -24.558594 38.167969 -24.292969 C 39.230469 -23.960938 40.09375 -23.429688 40.691406 -22.769531 C 41.222656 -22.039062 41.621094 -21.109375 41.820312 -19.980469 C 41.949219 -18.785156 42.015625 -17.390625 42.015625 -15.796875 Z M 17.390625 -2.125 C 17.390625 -1.59375 17.65625 -1.394531 18.253906 -1.394531 L 26.882812 -1.394531 C 27.414062 -1.394531 27.746094 -1.59375 27.746094 -2.125 L 27.746094 -17.589844 C 27.746094 -18.054688 27.414062 -18.320312 26.882812 -18.320312 L 18.253906 -18.320312 C 17.65625 -18.320312 17.390625 -18.054688 17.390625 -17.589844 Z M 17.390625 -2.125 "/></g></g></g><g fill="rgb(54.899597%, 32.159424%, 100%)" fill-opacity="1"><g transform="translate(111.443518, 55.469194)"><g><path d="M 48.390625 -7.300781 C 48.390625 -4.515625 48.058594 -2.390625 47.527344 -0.796875 C 46.863281 0.796875 46 2.058594 44.9375 2.988281 C 43.808594 3.785156 42.480469 4.382812 40.890625 4.648438 C 39.296875 4.910156 37.4375 5.042969 35.445312 5.042969 L 3.386719 5.042969 L 3.386719 -44.605469 L 35.445312 -44.605469 C 38.035156 -44.605469 40.160156 -44.40625 41.886719 -44.074219 C 43.542969 -43.675781 44.871094 -42.945312 45.867188 -41.949219 C 46.796875 -40.890625 47.460938 -39.429688 47.859375 -37.636719 C 48.191406 -35.777344 48.390625 -33.320312 48.390625 -30.402344 Z M 18.320312 -1.394531 L 31.199219 -1.394531 C 31.863281 -1.394531 32.460938 -1.527344 32.855469 -1.859375 C 33.253906 -2.125 33.453125 -2.789062 33.453125 -3.984375 L 33.453125 -36.242188 C 33.453125 -36.839844 33.320312 -37.304688 33.054688 -37.703125 C 32.789062 -37.96875 32.128906 -38.167969 31.199219 -38.167969 L 18.320312 -38.167969 Z M 18.320312 -1.394531 "/></g></g></g><g fill="rgb(54.899597%, 32.159424%, 100%)" fill-opacity="1"><g transform="translate(163.208687, 55.469194)"><g><path d="M 42.015625 -3.917969 C 42.015625 -2.191406 41.949219 -0.796875 41.820312 0.332031 C 41.621094 1.394531 41.222656 2.324219 40.691406 3.054688 C 40.09375 3.71875 39.230469 4.25 38.167969 4.582031 C 36.972656 4.84375 35.445312 5.042969 33.585938 5.042969 L 11.484375 5.042969 C 9.492188 5.042969 7.964844 4.84375 6.902344 4.582031 C 5.773438 4.25 4.910156 3.71875 4.382812 3.054688 C 3.785156 2.324219 3.453125 1.394531 3.320312 0.332031 C 3.121094 -0.796875 3.054688 -2.191406 3.054688 -3.917969 L 3.054688 -15.796875 C 3.054688 -17.390625 3.121094 -18.785156 3.320312 -19.980469 C 3.453125 -21.109375 3.785156 -22.039062 4.382812 -22.769531 C 4.910156 -23.429688 5.773438 -23.960938 6.902344 -24.292969 C 7.964844 -24.558594 9.492188 -24.757812 11.484375 -24.757812 L 33.585938 -24.757812 C 35.445312 -24.757812 36.972656 -24.558594 38.167969 -24.292969 C 39.230469 -23.960938 40.09375 -23.429688 40.691406 -22.769531 C 41.222656 -22.039062 41.621094 -21.109375 41.820312 -19.980469 C 41.949219 -18.785156 42.015625 -17.390625 42.015625 -15.796875 Z M 17.390625 -2.125 C 17.390625 -1.59375 17.65625 -1.394531 18.253906 -1.394531 L 26.882812 -1.394531 C 27.414062 -1.394531 27.746094 -1.59375 27.746094 -2.125 L 27.746094 -17.589844 C 27.746094 -18.054688 27.414062 -18.320312 26.882812 -18.320312 L 18.253906 -18.320312 C 17.65625 -18.320312 17.390625 -18.054688 17.390625 -17.589844 Z M 17.390625 -2.125 "/></g></g></g></svg>